<?xml version="1.0" encoding="iso-8859-1"?>
<!-- Uploaded to: SVG Repo, www.svgrepo.com, Generator: SVG Repo Mixer Tools -->
<!DOCTYPE svg PUBLIC "-//W3C//DTD SVG 1.1//EN" "http://www.w3.org/Graphics/SVG/1.1/DTD/svg11.dtd">
<svg fill="#000000" height="800px" width="800px" version="1.1" id="Capa_1" xmlns="http://www.w3.org/2000/svg" xmlns:xlink="http://www.w3.org/1999/xlink" 
	 viewBox="0 0 442 442" xml:space="preserve">
<g>
	<path d="M131.677,362.328C68.011,353.219,20,297.772,20,233.352c0-71.852,58.456-130.307,130.307-130.307
		c8.62,0,17.26,0.853,25.681,2.535c5.418,1.083,10.684-2.433,11.765-7.848c1.082-5.416-2.432-10.684-7.847-11.766
		c-9.708-1.938-19.666-2.922-29.599-2.922C67.428,83.045,0,150.473,0,233.352c0,36.394,13.177,71.51,37.105,98.878
		c23.695,27.103,56.275,44.822,91.739,49.897c0.481,0.068,0.958,0.102,1.429,0.102c4.895,0,9.173-3.598,9.887-8.585
		C140.942,368.176,137.144,363.11,131.677,362.328z"/>
	<path d="M439.373,193.508c-1.894-2.067-4.569-3.245-7.373-3.245h-11.585v-12.5h0.792c5.523,0,10-4.478,10-10
		c0-5.522-4.477-10-10-10h-0.792v-22.5c0-5.522-4.477-10-10-10h-44.098c-3.062-7.417-7.352-14.435-12.82-20.933
		c-11.796-14.018-27.838-23.507-47.68-28.203c-20.512-4.854-28.318-20.186-30.722-26.552c-1.799-4.766-6.89-7.421-11.828-6.157
		c-19.565,4.992-36.441,19.626-45.145,39.146c-6.303,14.137-7.635,29.221-4.113,42.699h-41.038c-5.523,0-10,4.478-10,10v22.5h-0.792
		c-5.523,0-10,4.478-10,10c0,5.522,4.477,10,10,10h0.792v12.5h-11.585c-2.804,0-5.48,1.178-7.374,3.245
		c-1.894,2.067-2.833,4.835-2.588,7.629l13.047,148.784c2.368,27.004,26.349,48.974,53.456,48.974h167.531
		c27.107,0,51.088-21.97,53.456-48.974l13.047-148.784C442.206,198.343,441.268,195.576,439.373,193.508z M236.389,90.709
		c5.043-11.31,13.79-20.298,24.194-25.17c8.586,14.973,23.21,25.93,40.628,30.052c15.789,3.737,27.886,10.809,36.983,21.618
		c2.181,2.592,4.098,5.283,5.769,8.055H235.098C230.719,115.079,231.112,102.544,236.389,90.709z M182.972,145.263h176.223
		c0.024,0,0.048,0.003,0.072,0.003c0.013,0,0.027-0.003,0.041-0.003h41.107v12.5H182.972V145.263z M182.972,177.763h217.443v12.5
		H182.972V177.763z M408.991,348.173c-1.46,16.653-16.816,30.722-33.532,30.722H207.928c-16.716,0-32.072-14.068-33.532-30.722
		l-12.094-137.91h258.783L408.991,348.173z"/>
</g>
</svg>