<?xml version="1.0" encoding="iso-8859-1"?>
<!-- Uploaded to: SVG Repo, www.svgrepo.com, Generator: SVG Repo Mixer Tools -->
<!DOCTYPE svg PUBLIC "-//W3C//DTD SVG 1.1//EN" "http://www.w3.org/Graphics/SVG/1.1/DTD/svg11.dtd">
<svg fill="#000000" height="800px" width="800px" version="1.1" id="Capa_1" xmlns="http://www.w3.org/2000/svg" xmlns:xlink="http://www.w3.org/1999/xlink" 
	 viewBox="0 0 442.002 442.002" xml:space="preserve">
<g>
	<path d="M215.251,324.312c0,16.561,13.474,30.034,30.034,30.034c16.561,0,30.035-13.474,30.035-30.034
		c0-16.561-13.474-30.035-30.035-30.035C228.724,294.277,215.251,307.75,215.251,324.312z"/>
	<path d="M428.602,316.827c-26.873-23.746-57.853-41.822-91.139-53.55c-3.769-8.162-4.567-17.297-2.212-26.088
		c2.667-9.951,9.049-18.268,17.971-23.419c4.783-2.761,6.422-8.877,3.66-13.66c-2.76-4.781-8.873-6.421-13.66-3.66
		c-13.549,7.821-23.24,20.451-27.289,35.564c-2.161,8.065-2.559,16.319-1.288,24.325c-15.635-4.034-31.667-6.704-47.924-7.961
		c-12.623-15.137-11.842-37.747,2.36-51.949c3.905-3.905,3.905-10.237,0-14.143c-3.906-3.904-10.238-3.904-14.143,0
		c-17.619,17.62-21.629,43.761-12.06,65.275c-16.357,0.14-32.557,1.709-48.428,4.661c-16.085-11.361-21.167-33.386-11.131-50.768
		c2.762-4.783,1.123-10.898-3.66-13.66c-4.784-2.762-10.9-1.122-13.66,3.66c-12.449,21.563-9.572,47.828,5.211,66.131
		c-15.672,4.338-30.92,10.055-45.576,17.068c-8.432-3.107-15.452-9.001-20-16.88c-5.151-8.922-6.52-19.316-3.854-29.268
		c1.43-5.334-1.736-10.817-7.071-12.247c-5.337-1.433-10.817,1.736-12.247,7.071c-4.049,15.111-1.971,30.895,5.852,44.443
		c4.171,7.226,9.72,13.339,16.273,18.1c-13.901,8.196-27.131,17.64-39.524,28.269c-19.619-1.789-35.04-18.324-35.04-38.401
		c0-5.522-4.478-10-10-10c-5.522,0-10,4.478-10,10c0,30.988,24.196,56.418,54.685,58.426c50.16,43.168,114.129,66.915,180.57,66.922
		c0.002,0,0.004,0,0.006,0c0.001,0,0.002,0,0.002,0c0.002,0,0.004,0,0.005,0c0.004,0,0.006,0,0.01,0
		c67.642,0,132.739-24.603,183.299-69.274c2.148-1.898,3.379-4.627,3.379-7.494C431.98,321.454,430.75,318.725,428.602,316.827z
		 M302.062,324.312c0,31.306-25.469,56.775-56.775,56.777c-0.003,0-0.006,0-0.009,0c-31.304-0.004-56.771-25.473-56.771-56.777
		c0-31.306,25.468-56.774,56.773-56.777c0.005,0,0.01,0,0.015,0C276.597,267.54,302.062,293.009,302.062,324.312z M130.244,294.658
		c0.406-0.166,0.798-0.359,1.178-0.576c17.751-8.766,36.474-15.453,55.803-19.921c-11.647,13.465-18.717,30.992-18.717,50.151
		c0,19.156,7.068,36.681,18.712,50.146c-37.562-8.686-72.842-25.735-103.131-50.148C98.448,312.735,113.931,302.818,130.244,294.658
		z M303.345,374.463c11.647-13.465,18.717-30.993,18.717-50.151c0-19.155-7.068-36.68-18.711-50.145
		c37.559,8.688,72.839,25.738,103.129,50.153C376.188,348.734,340.906,365.781,303.345,374.463z"/>
	<path d="M442,102.607c0-3.263-1.592-6.32-4.265-8.191c-49.987-35.002-108.553-53.503-169.363-53.503
		c-46.607,0-93.155,11.151-134.612,32.248c-42.827,21.795-80.127,54.256-107.868,93.874c-9.482,13.543-17.866,27.915-24.918,42.717
		c-2.229,4.682-0.512,10.29,3.957,12.92c1.588,0.934,3.336,1.382,5.065,1.382c3.137,0,6.211-1.476,8.15-4.198
		c8.874-12.453,18.904-24.298,29.811-35.205c52.074-52.075,121.312-80.754,194.956-80.754c67.354,0,132.154,24.506,182.464,69.002
		c2.945,2.606,7.145,3.244,10.733,1.627c3.586-1.616,5.892-5.184,5.892-9.117L442,102.607z M242.913,83.896
		c-54.993,0-107.69,14.907-153.483,42.815c49.358-41.965,112.661-65.799,178.942-65.799c54.966,0,107.969,16.219,153.628,46.958
		l0.001,36.389C370.745,105.196,307.934,83.896,242.913,83.896z"/>
</g>
</svg>